<?xml version="1.0" standalone="no"?>
<!DOCTYPE svg PUBLIC "-//W3C//DTD SVG 20010904//EN"
 "http://www.w3.org/TR/2001/REC-SVG-20010904/DTD/svg10.dtd">
<svg version="1.0" xmlns="http://www.w3.org/2000/svg"
 width="3840.000000pt" height="3832.000000pt" viewBox="0 0 3840.000000 3832.000000"
 preserveAspectRatio="xMidYMid meet">
<metadata>
Created by potrace 1.16, written by Peter Selinger 2001-2019
</metadata>
<g transform="translate(0.000000,3832.000000) scale(0.100000,-0.100000)"
fill="#000000" stroke="none">
<path d="M0 19160 l0 -19160 19200 0 19200 0 0 19160 0 19160 -19200 0 -19200
0 0 -19160z m32535 15500 c5 -8 21 -62 56 -195 6 -22 17 -53 24 -70 7 -16 17
-46 23 -65 26 -88 64 -203 97 -295 20 -55 43 -118 50 -140 26 -76 57 -160 70
-190 8 -16 19 -49 25 -72 6 -23 15 -45 20 -48 6 -3 10 -17 10 -31 0 -14 8 -46
18 -72 10 -26 29 -78 41 -117 21 -62 75 -210 133 -360 11 -27 26 -69 35 -92 8
-24 19 -45 24 -49 5 -3 9 -13 9 -22 0 -10 9 -35 20 -57 11 -22 20 -46 20 -55
0 -8 9 -28 20 -45 11 -16 20 -38 20 -47 0 -22 41 -108 52 -108 4 0 8 -6 8 -14
0 -35 263 -246 308 -246 8 0 25 -9 39 -20 14 -11 34 -20 44 -20 9 0 19 -4 21
-9 2 -4 77 -45 168 -90 90 -45 169 -85 175 -89 5 -5 46 -23 90 -41 44 -18 98
-41 121 -52 23 -10 45 -19 50 -19 5 0 38 -14 74 -31 36 -17 74 -35 85 -40 11
-4 92 -40 180 -80 88 -39 183 -79 210 -89 103 -36 121 -43 161 -61 23 -11 50
-19 60 -19 10 0 28 -7 38 -15 11 -8 27 -15 35 -15 9 0 27 -6 41 -13 14 -7 63
-28 110 -47 98 -39 130 -57 130 -75 0 -20 -290 -144 -407 -175 -23 -6 -45 -15
-48 -20 -3 -6 -16 -10 -28 -10 -12 0 -39 -9 -60 -20 -20 -11 -44 -20 -53 -20
-8 0 -36 -9 -62 -20 -26 -10 -112 -44 -192 -74 -80 -31 -158 -62 -175 -70 -16
-8 -47 -20 -67 -26 -21 -6 -40 -16 -43 -21 -4 -5 -16 -9 -28 -9 -12 0 -35 -8
-52 -18 -16 -10 -45 -22 -64 -25 -19 -4 -42 -13 -50 -21 -9 -7 -31 -16 -49
-19 -18 -4 -40 -14 -48 -22 -9 -8 -24 -15 -35 -15 -24 0 -140 -52 -324 -146
-188 -96 -209 -107 -218 -121 -4 -7 -13 -13 -18 -13 -31 0 -191 -169 -219
-231 -6 -13 -22 -42 -35 -64 -59 -97 -225 -448 -225 -475 0 -10 -7 -23 -15
-30 -8 -7 -17 -27 -21 -46 -3 -19 -15 -51 -25 -71 -11 -21 -19 -44 -19 -53 0
-8 -7 -24 -15 -34 -8 -11 -15 -26 -15 -33 0 -7 -11 -36 -24 -65 -13 -29 -32
-75 -43 -103 -21 -52 -28 -72 -70 -189 -13 -37 -30 -81 -38 -97 -8 -15 -15
-39 -15 -52 0 -13 -10 -44 -23 -68 -13 -24 -29 -62 -35 -84 -15 -55 -42 -134
-57 -170 -7 -16 -16 -41 -20 -55 -3 -14 -10 -34 -16 -45 -5 -11 -33 -87 -63
-170 -29 -82 -59 -162 -66 -177 -13 -28 -50 -39 -50 -15 0 7 -11 37 -25 65
-14 29 -25 56 -25 61 0 5 -7 22 -15 38 -23 45 -52 115 -65 155 -6 21 -16 40
-21 43 -5 4 -9 15 -9 27 0 11 -7 34 -15 51 -8 18 -24 56 -35 86 -20 52 -30 74
-86 199 -13 29 -24 59 -24 67 0 8 -9 30 -20 50 -11 20 -20 41 -20 48 0 7 -9
29 -20 50 -11 20 -20 45 -20 55 0 10 -7 27 -15 38 -14 21 -20 35 -65 159 -12
33 -28 74 -35 90 -7 17 -27 64 -45 105 -17 41 -37 89 -45 105 -7 17 -23 51
-34 78 -12 26 -30 68 -42 95 -11 26 -29 65 -39 87 -10 22 -33 76 -52 120 -18
44 -50 111 -70 149 -21 38 -38 71 -38 73 0 2 -13 23 -29 46 -15 23 -31 52 -35
65 -4 12 -12 22 -17 22 -5 0 -13 8 -16 18 -9 23 -73 82 -90 82 -8 0 -16 6 -19
14 -3 8 -18 18 -34 21 -15 3 -36 15 -46 26 -9 10 -22 19 -28 19 -6 0 -56 22
-111 49 -55 27 -122 59 -150 70 -27 11 -82 34 -122 51 -39 16 -80 30 -91 30
-11 0 -25 6 -31 14 -7 8 -24 17 -39 20 -30 8 -120 41 -167 62 -16 7 -59 25
-95 39 -36 14 -74 30 -85 35 -91 42 -298 130 -305 130 -9 0 -38 12 -146 61
-23 11 -48 19 -57 19 -9 0 -19 4 -22 10 -3 5 -31 17 -61 26 -30 8 -93 33 -140
55 -46 21 -89 39 -94 39 -6 0 -30 9 -55 21 -24 11 -95 40 -157 63 -88 32 -114
46 -116 61 -3 21 5 24 118 59 89 28 146 48 175 61 17 8 46 17 65 21 19 4 48
12 65 19 16 7 48 18 70 25 22 7 108 37 190 67 83 31 173 62 200 70 28 8 54 19
60 24 5 5 16 9 25 9 8 0 44 14 78 30 35 17 74 30 85 30 12 0 36 7 52 16 17 9
50 22 75 29 79 23 174 56 220 75 25 10 77 31 115 45 39 14 84 32 100 40 54 24
239 94 267 100 15 4 32 13 39 21 6 8 20 14 31 14 11 0 34 6 51 14 18 7 52 22
77 32 85 35 183 106 265 190 51 53 77 94 162 261 55 109 119 242 142 295 23
53 48 110 56 125 8 15 15 35 15 44 0 9 6 22 14 28 7 6 16 26 20 44 3 17 16 52
28 77 24 49 33 71 74 175 15 39 43 104 62 145 32 72 45 104 72 180 7 19 21 53
31 76 11 23 19 48 19 57 0 9 4 18 9 22 5 3 15 22 21 43 12 38 24 65 79 186 18
38 39 87 48 110 9 22 20 46 24 51 4 6 15 33 24 60 9 28 22 61 29 75 8 14 19
44 25 68 10 37 15 42 41 42 16 0 31 -4 35 -10z m-30809 -3862 c47 -40 101 -85
121 -100 20 -16 75 -66 122 -112 47 -46 102 -97 121 -112 19 -16 37 -31 40
-35 3 -3 48 -41 99 -84 52 -43 113 -98 135 -122 22 -24 45 -43 51 -43 6 0 18
-8 27 -17 9 -10 29 -27 44 -38 15 -11 59 -50 98 -87 130 -122 181 -168 188
-168 4 0 14 -8 24 -17 10 -10 34 -31 53 -46 20 -16 68 -59 106 -96 39 -37 93
-85 120 -107 79 -62 82 -64 184 -161 53 -50 126 -115 162 -145 55 -44 139
-116 379 -324 8 -8 29 -26 46 -41 40 -37 107 -96 180 -159 32 -29 73 -65 90
-80 30 -29 85 -75 154 -131 32 -26 102 -91 207 -190 24 -24 50 -46 57 -50 29
-17 116 -93 212 -185 55 -54 103 -98 107 -98 4 0 15 -8 26 -17 10 -10 35 -31
56 -48 21 -16 68 -59 104 -94 36 -35 98 -89 136 -119 72 -57 83 -67 221 -193
136 -125 152 -139 158 -139 4 0 34 -26 68 -57 135 -128 187 -174 238 -213 25
-19 54 -43 66 -55 21 -21 31 -30 174 -155 47 -41 93 -83 102 -92 10 -10 23
-18 28 -18 6 0 10 -7 10 -15 0 -8 5 -15 10 -15 6 0 29 -17 53 -39 198 -181
204 -185 332 -289 49 -41 94 -80 98 -88 4 -8 12 -14 17 -14 4 0 26 -17 47 -37
22 -21 60 -56 86 -78 26 -22 60 -51 75 -65 16 -14 51 -44 78 -67 27 -23 87
-78 134 -122 46 -45 87 -81 91 -81 8 0 87 -68 125 -107 12 -13 26 -23 33 -23
6 0 11 -5 11 -11 0 -13 77 -83 179 -162 42 -33 81 -65 86 -71 16 -18 218 -198
256 -228 19 -15 40 -28 47 -28 6 0 12 -5 12 -11 0 -14 55 -69 69 -69 6 0 11
-6 11 -14 0 -8 19 -29 43 -47 23 -18 60 -49 83 -68 69 -61 156 -136 164 -141
9 -6 130 -112 170 -150 15 -14 38 -34 51 -44 13 -10 45 -37 70 -60 25 -23 61
-54 80 -70 19 -15 63 -56 99 -90 36 -33 85 -77 109 -96 23 -19 53 -44 66 -55
13 -11 32 -27 43 -35 18 -14 79 -69 212 -190 30 -27 57 -50 61 -50 3 0 17 -10
31 -22 14 -13 55 -50 92 -83 37 -33 97 -88 133 -122 36 -35 69 -63 74 -63 4 0
19 -10 32 -22 83 -81 238 -221 272 -247 64 -50 123 -101 199 -173 39 -36 105
-94 146 -128 41 -34 113 -97 160 -140 47 -42 110 -98 140 -125 69 -59 162
-141 220 -194 25 -22 48 -41 53 -41 4 0 12 -11 17 -25 5 -14 14 -25 21 -25 8
0 124 -95 159 -130 3 -3 34 -30 70 -60 36 -30 92 -80 125 -112 33 -31 78 -70
100 -87 22 -17 57 -46 79 -64 21 -17 44 -36 52 -40 8 -4 14 -14 14 -22 0 -7 9
-17 20 -20 11 -3 20 -12 20 -20 0 -8 8 -16 18 -20 9 -3 45 -31 79 -63 34 -31
73 -66 87 -77 47 -37 140 -118 261 -229 28 -25 53 -46 56 -46 3 0 18 -11 33
-25 15 -14 31 -25 37 -25 5 0 9 -7 9 -15 0 -9 6 -18 14 -21 8 -3 49 -39 93
-81 43 -41 112 -102 153 -136 63 -51 243 -209 260 -228 3 -3 34 -29 69 -58 35
-29 78 -67 95 -84 17 -18 67 -64 111 -102 44 -39 84 -76 88 -82 4 -7 13 -13
18 -13 6 0 18 -8 27 -19 10 -10 69 -63 132 -117 63 -54 160 -139 216 -189 245
-219 250 -224 335 -295 22 -19 48 -42 57 -50 8 -8 32 -28 51 -43 20 -16 76
-65 125 -110 140 -129 149 -137 157 -137 10 0 74 -58 191 -172 55 -54 104 -98
108 -98 5 0 20 -10 34 -22 14 -13 44 -39 67 -58 23 -19 78 -70 122 -113 44
-43 96 -89 116 -101 20 -13 79 -63 131 -113 117 -110 160 -148 228 -198 28
-21 52 -43 52 -47 0 -4 5 -8 11 -8 6 0 39 -28 73 -62 34 -35 118 -111 186
-171 69 -59 172 -150 229 -201 114 -103 152 -129 158 -108 3 6 12 12 21 12 8
0 75 60 148 133 72 72 162 161 200 197 38 36 105 102 148 145 44 44 154 153
245 242 91 89 234 230 318 313 83 82 155 150 159 150 6 0 99 93 183 185 19 21
67 65 105 98 39 33 109 101 156 150 47 49 100 104 118 121 18 17 78 77 135
134 56 57 136 132 177 167 41 35 184 172 318 304 134 133 245 241 248 241 6 0
127 115 168 159 17 19 75 78 128 130 54 53 239 236 412 406 173 171 338 331
367 357 30 25 102 93 160 150 58 57 129 123 157 148 29 25 52 48 52 52 0 10
90 98 100 98 5 0 14 8 19 18 5 10 65 72 132 138 67 65 219 214 338 330 424
416 516 504 523 504 5 0 8 7 8 15 0 8 4 15 8 15 12 0 212 198 212 210 0 5 5
10 11 10 6 0 30 19 53 43 24 23 121 116 217 207 181 172 387 372 617 598 73
72 136 132 139 132 6 0 100 95 189 191 34 36 69 69 78 72 9 4 16 13 16 21 0 7
9 16 20 19 11 3 20 12 20 21 0 9 6 16 12 16 17 0 148 131 148 147 0 7 6 13 13
13 8 0 32 19 54 43 22 23 55 53 73 67 36 27 94 83 228 223 45 47 89 90 97 94
8 5 86 78 173 163 87 85 177 172 200 192 23 21 42 40 42 43 0 8 48 52 64 58 9
4 16 13 16 22 0 8 5 15 10 15 15 0 230 212 230 227 0 7 5 13 11 13 6 0 41 29
78 64 36 35 88 84 116 108 52 46 62 56 111 109 17 19 62 63 100 98 38 35 148
141 245 235 96 94 194 187 217 206 23 19 42 41 42 48 0 6 5 12 11 12 14 0 69
55 69 69 0 6 5 11 10 11 11 0 61 43 187 164 93 89 90 79 58 201 -39 148 -51
524 -22 735 23 176 72 356 147 540 45 111 56 136 75 165 11 16 27 49 34 73 8
23 20 47 27 53 7 6 16 24 19 40 4 16 11 29 16 29 6 0 15 12 22 28 7 15 26 47
42 71 17 24 35 53 42 64 6 11 15 22 21 26 5 3 40 44 77 91 38 47 89 107 114
133 94 100 142 147 149 147 4 0 25 16 47 36 94 83 134 115 198 158 38 25 73
46 78 46 5 0 17 8 27 18 10 9 47 32 83 49 35 18 80 42 99 53 30 16 79 39 195
90 11 5 38 14 60 21 22 6 45 15 50 19 6 5 33 11 60 15 28 4 59 13 70 20 11 7
45 16 75 20 30 4 66 12 80 17 41 16 315 37 485 37 174 0 418 -19 450 -36 11
-6 49 -14 85 -18 36 -4 76 -13 90 -20 14 -7 43 -15 65 -19 80 -14 381 -146
435 -191 8 -7 33 -19 55 -26 22 -8 48 -22 57 -31 10 -10 24 -18 31 -18 8 0 22
-9 32 -20 10 -11 22 -20 27 -20 5 0 30 -18 56 -39 156 -132 243 -201 252 -201
6 0 10 -6 10 -14 0 -8 9 -18 20 -21 11 -3 20 -11 20 -17 0 -6 29 -40 64 -77
101 -104 216 -248 216 -270 0 -4 9 -16 20 -26 11 -10 20 -22 20 -27 0 -4 25
-48 55 -97 47 -76 92 -165 150 -296 7 -16 22 -50 33 -75 11 -25 23 -63 27 -85
4 -22 13 -47 20 -55 7 -8 16 -37 20 -64 3 -26 15 -81 26 -122 52 -201 76 -485
60 -715 -13 -173 -27 -266 -65 -416 -14 -56 -26 -112 -26 -125 0 -13 -7 -31
-15 -41 -7 -11 -17 -38 -20 -60 -4 -23 -13 -49 -20 -57 -7 -8 -16 -29 -19 -46
-11 -51 -148 -315 -234 -449 -6 -11 -18 -31 -25 -45 -6 -14 -19 -32 -27 -41
-17 -20 -41 -49 -113 -139 -58 -73 -66 -82 -141 -160 -56 -58 -118 -116 -179
-165 -21 -16 -57 -47 -79 -67 -23 -21 -50 -41 -60 -44 -10 -3 -18 -9 -18 -14
0 -5 -17 -17 -37 -26 -21 -10 -47 -25 -58 -34 -48 -40 -309 -190 -330 -190 -6
0 -27 -11 -47 -25 -20 -14 -46 -25 -58 -25 -12 0 -42 -9 -68 -20 -120 -50
-405 -113 -582 -129 -222 -21 -507 -4 -684 39 l-89 21 -95 -100 c-52 -56 -124
-129 -160 -164 -37 -34 -116 -113 -177 -174 -60 -62 -113 -113 -117 -113 -10
0 -228 -221 -228 -231 0 -5 -5 -9 -10 -9 -9 0 -282 -264 -453 -438 -40 -41
-110 -111 -156 -155 -47 -45 -143 -142 -214 -214 -72 -73 -135 -133 -141 -133
-17 0 -133 -115 -141 -140 -3 -11 -10 -20 -15 -20 -12 0 -130 -118 -130 -129
0 -5 -7 -11 -15 -13 -8 -2 -89 -75 -180 -163 -91 -88 -237 -228 -323 -311 -86
-83 -217 -210 -291 -282 -74 -73 -138 -132 -143 -132 -4 0 -8 -7 -8 -15 0 -8
-6 -15 -14 -15 -16 0 -186 -160 -171 -160 232 -8 3076 -25 4023 -25 l503 0 33
75 c43 96 82 175 112 225 13 22 29 51 36 65 7 14 36 58 63 99 28 40 55 82 61
92 6 11 23 33 38 49 14 16 26 32 26 35 0 12 229 246 294 300 26 22 55 48 64
58 9 9 21 17 26 17 5 0 45 24 90 54 44 29 103 67 129 82 27 16 65 39 85 52 21
12 48 27 62 33 14 6 32 16 40 23 8 7 28 17 45 20 16 4 36 13 43 19 22 17 379
137 411 137 9 0 39 8 66 19 28 10 75 22 105 25 30 4 82 13 115 21 79 18 433
48 560 46 236 -3 562 -41 750 -88 33 -9 80 -17 105 -20 43 -4 47 -2 105 54 33
31 96 87 141 124 44 36 111 95 150 131 38 36 82 77 98 89 15 13 37 32 47 42
10 9 23 17 28 17 6 0 16 8 23 18 7 9 24 25 38 33 14 9 48 38 76 65 95 92 136
127 284 242 18 15 51 44 73 65 21 20 43 37 48 37 5 0 12 6 15 13 3 8 28 31 57
53 29 21 66 51 82 65 94 83 188 159 196 159 5 0 9 7 9 15 0 8 5 15 10 15 6 0
30 18 53 41 23 22 55 50 71 62 16 12 37 30 47 40 11 9 22 17 26 17 4 0 27 17
52 38 25 20 62 50 83 64 20 15 57 48 83 73 26 25 51 45 54 45 4 0 16 8 27 18
10 10 51 39 89 64 39 26 92 69 119 96 l49 50 -8 69 c-8 76 -9 239 -1 252 3 4
10 71 16 147 11 138 16 162 71 345 33 110 58 168 129 294 28 50 57 105 65 123
9 17 20 32 25 32 6 0 10 6 10 14 0 38 224 281 340 368 143 107 263 190 318
218 34 18 62 37 62 42 0 4 7 8 16 8 9 0 33 9 53 20 116 62 381 140 579 169 93
14 303 14 434 0 152 -16 302 -54 548 -140 73 -25 140 -56 297 -139 46 -24 217
-145 251 -177 7 -7 17 -13 21 -13 11 0 211 -196 211 -206 0 -5 21 -31 47 -59
60 -64 143 -174 143 -190 0 -7 7 -18 16 -25 8 -8 22 -27 29 -44 8 -17 19 -38
24 -46 5 -8 14 -26 20 -40 6 -14 15 -32 20 -40 4 -8 14 -31 21 -50 6 -19 23
-64 37 -100 24 -62 33 -91 74 -225 27 -90 59 -333 59 -443 0 -123 -31 -331
-65 -447 -15 -49 -29 -99 -32 -110 -3 -11 -9 -24 -13 -30 -4 -5 -10 -22 -14
-38 -4 -15 -18 -52 -31 -82 -14 -29 -25 -58 -25 -64 0 -15 -83 -174 -102 -195
-10 -11 -18 -24 -18 -29 0 -5 -13 -26 -30 -47 -16 -21 -30 -41 -30 -46 0 -4
-17 -28 -38 -53 -20 -25 -54 -69 -75 -96 -55 -74 -206 -217 -249 -237 -21 -10
-38 -22 -38 -28 0 -5 -7 -10 -15 -10 -8 0 -15 -5 -15 -10 0 -6 -10 -15 -22
-20 -13 -6 -48 -28 -78 -50 -30 -22 -89 -57 -130 -77 -41 -20 -76 -40 -78 -45
-2 -4 -12 -8 -23 -8 -11 0 -36 -7 -57 -17 -20 -9 -64 -24 -97 -34 -33 -9 -100
-31 -149 -48 -370 -128 -702 -135 -1131 -24 -90 23 -299 93 -309 104 -17 16
-42 10 -68 -18 -13 -16 -64 -64 -112 -108 -112 -101 -166 -156 -166 -167 0 -4
-13 -14 -29 -20 -16 -7 -76 -58 -134 -113 -57 -55 -125 -118 -152 -140 -70
-58 -272 -245 -330 -304 -27 -28 -54 -51 -61 -51 -12 0 -29 -15 -174 -150 -47
-43 -96 -88 -110 -99 -14 -11 -32 -27 -40 -34 -8 -8 -26 -20 -38 -26 -26 -14
-162 -132 -229 -198 l-42 -42 23 -68 c13 -38 28 -86 34 -108 5 -22 19 -76 31
-120 11 -44 23 -107 27 -140 3 -33 11 -80 17 -105 15 -61 22 -16972 7 -17001
-10 -18 -53 -19 -2425 -19 -2379 0 -2414 0 -2425 19 -7 14 -10 1647 -10 5230
0 4489 -2 5211 -14 5211 -8 0 -16 -4 -18 -9 -4 -12 -130 -152 -190 -212 -27
-26 -48 -51 -48 -56 0 -4 -10 -13 -22 -18 -12 -6 -26 -18 -32 -29 -6 -10 -42
-50 -79 -90 -38 -39 -117 -125 -175 -191 -59 -65 -135 -147 -169 -181 -35 -33
-63 -63 -63 -66 0 -3 -80 -87 -177 -186 -98 -99 -227 -233 -288 -297 -60 -65
-182 -191 -270 -282 -88 -90 -162 -169 -163 -174 -2 -5 -20 -27 -40 -48 -21
-21 -58 -60 -83 -87 -26 -27 -66 -67 -90 -90 -52 -49 -129 -135 -129 -145 0
-4 -9 -9 -20 -12 -11 -3 -20 -12 -20 -21 0 -9 -7 -16 -15 -16 -9 0 -19 -8 -22
-17 -4 -9 -41 -51 -83 -93 -42 -41 -94 -96 -115 -123 -22 -26 -100 -109 -173
-185 -221 -228 -252 -261 -252 -270 0 -6 -8 -12 -19 -15 -10 -2 -54 -46 -97
-98 -44 -51 -89 -103 -101 -115 -13 -12 -23 -26 -23 -33 0 -6 -5 -11 -12 -11
-12 0 -74 -63 -178 -179 -36 -40 -117 -126 -180 -190 -63 -65 -185 -191 -270
-282 -85 -90 -208 -218 -272 -284 -65 -66 -131 -136 -149 -155 -42 -47 -326
-345 -414 -435 -38 -39 -108 -112 -154 -161 -46 -49 -127 -134 -180 -189 -53
-55 -132 -138 -177 -185 -44 -47 -91 -95 -105 -106 -13 -12 -45 -46 -72 -77
-26 -30 -98 -107 -160 -170 -448 -461 -596 -619 -597 -634 0 -7 -6 -13 -13
-13 -7 0 -55 -46 -107 -102 -132 -141 -221 -235 -317 -333 -46 -46 -83 -89
-83 -94 0 -6 -7 -11 -15 -11 -8 0 -19 -9 -25 -20 -6 -11 -42 -52 -81 -92 -39
-40 -104 -107 -145 -149 -41 -42 -74 -81 -74 -88 0 -6 -7 -11 -16 -11 -9 0
-18 -9 -21 -20 -3 -11 -12 -20 -19 -20 -8 0 -14 -4 -14 -9 0 -9 -17 -27 -214
-232 -67 -69 -150 -159 -186 -200 -36 -40 -80 -87 -99 -104 -19 -16 -57 -57
-84 -90 -52 -63 -170 -188 -228 -241 -44 -40 -159 -162 -159 -169 0 -3 -53
-58 -117 -124 -65 -65 -128 -132 -140 -147 -20 -25 -106 -113 -168 -171 -11
-10 -49 -52 -85 -93 -36 -41 -111 -120 -167 -177 -57 -56 -103 -107 -103 -112
0 -6 -7 -11 -15 -11 -8 0 -15 -4 -15 -9 0 -12 14 3 -440 -471 -74 -78 -147
-154 -162 -170 -16 -16 -28 -31 -28 -33 0 -3 -60 -65 -133 -138 -150 -152
-227 -236 -227 -250 0 -4 -12 -15 -27 -23 -16 -8 -55 -47 -88 -87 -33 -40 -69
-81 -79 -92 -19 -20 -27 -20 -1808 -14 l-1789 5 -47 39 c-26 21 -66 57 -89 80
-22 24 -45 43 -49 43 -4 0 -28 19 -53 43 -25 23 -63 56 -85 72 -21 17 -63 53
-94 81 -78 71 -169 144 -179 144 -4 0 -14 9 -21 20 -7 11 -19 20 -27 20 -8 0
-15 7 -15 15 0 9 -10 20 -22 25 -13 5 -67 51 -121 103 -54 52 -110 100 -125
108 -31 16 -68 47 -126 104 -22 22 -65 60 -96 85 -31 25 -64 53 -75 62 -11 10
-35 31 -54 48 -19 16 -37 30 -41 30 -4 0 -31 23 -61 52 -79 76 -231 208 -239
208 -4 0 -32 22 -61 50 -30 27 -61 56 -69 64 -8 7 -44 37 -80 65 -36 29 -69
59 -73 67 -4 8 -12 14 -17 14 -5 0 -20 10 -33 23 -13 12 -38 33 -56 47 -18 14
-45 36 -60 50 -27 25 -153 139 -226 204 -22 20 -45 36 -52 36 -6 0 -20 11 -31
25 -11 14 -24 25 -29 25 -5 0 -45 34 -88 76 -44 41 -111 102 -150 134 -38 33
-79 69 -91 80 -12 11 -24 20 -28 20 -3 0 -14 8 -24 17 -51 49 -189 170 -212
188 -15 11 -35 28 -44 37 -10 10 -21 18 -25 18 -4 0 -40 32 -80 70 -107 102
-187 171 -266 230 -38 29 -97 79 -130 111 -115 110 -170 158 -182 159 -7 0
-13 4 -13 9 0 10 -108 101 -120 101 -4 0 -18 -10 -32 -22 -41 -37 -80 -71
-128 -109 -25 -19 -59 -49 -76 -65 -17 -16 -42 -39 -55 -51 -13 -13 -35 -35
-49 -49 -14 -15 -63 -58 -110 -97 -47 -39 -122 -107 -167 -151 -45 -45 -109
-106 -144 -136 -98 -87 -166 -149 -244 -226 -40 -39 -80 -74 -89 -77 -9 -4
-16 -13 -16 -22 0 -8 -6 -15 -14 -15 -8 0 -58 -43 -112 -95 -124 -120 -158
-151 -214 -195 -25 -19 -77 -66 -116 -105 -102 -102 -193 -185 -202 -185 -4 0
-38 -30 -77 -66 -169 -160 -238 -223 -311 -289 -42 -38 -96 -88 -119 -110 -48
-45 -116 -106 -171 -150 -20 -16 -55 -47 -76 -68 -22 -20 -42 -37 -44 -37 -3
0 -34 -28 -69 -62 -56 -56 -98 -94 -170 -156 -82 -70 -231 -208 -238 -219 -4
-7 -12 -13 -17 -13 -5 0 -24 -15 -42 -33 -18 -18 -58 -51 -88 -74 l-55 -40
-525 -12 c-289 -6 -777 -16 -1085 -21 -578 -10 -765 -14 -1380 -30 -198 -5
-598 -14 -890 -19 -291 -6 -604 -13 -695 -16 -91 -3 -509 -10 -930 -15 -421
-6 -832 -14 -915 -19 -232 -15 -1081 -18 -1095 -5 -14 14 -3 84 13 84 18 0
189 136 275 220 46 44 87 80 93 80 5 0 12 6 15 14 3 8 33 34 67 59 34 26 76
59 93 74 16 15 46 40 65 54 19 15 57 49 85 75 60 57 129 115 153 128 9 5 45
37 81 70 37 34 90 81 119 106 29 25 62 53 72 63 10 9 22 17 25 17 4 0 16 9 28
20 71 68 118 109 195 172 47 39 110 92 139 119 29 27 56 49 60 49 4 0 34 24
68 53 33 28 82 70 107 92 26 22 67 57 90 78 23 21 55 48 71 60 16 12 48 39 71
60 23 20 47 37 52 37 5 0 18 10 29 23 43 48 170 160 220 193 29 19 70 52 92
72 43 40 186 171 215 196 9 9 22 16 27 16 6 0 38 27 72 60 33 33 64 60 67 60
3 0 34 27 69 60 34 33 65 60 68 60 9 0 114 87 208 174 49 44 109 96 133 115
23 18 43 38 43 42 0 5 7 9 16 9 9 0 18 9 21 20 3 11 11 20 18 20 7 0 42 26 77
58 87 77 113 99 126 103 6 2 39 30 74 61 34 32 106 93 158 135 52 43 121 102
152 131 31 30 81 73 111 96 71 55 241 201 284 243 18 18 35 33 39 33 3 0 21
12 40 28 18 15 48 39 66 54 18 15 59 52 92 83 32 30 60 55 63 55 2 0 25 20 50
44 64 60 82 76 89 76 3 0 47 37 98 82 143 129 177 158 183 158 6 0 96 75 169
140 27 25 72 63 98 85 26 22 66 57 88 77 22 21 44 38 48 38 5 0 13 6 17 12 4
7 31 31 58 52 28 22 71 58 96 80 26 23 72 64 104 91 32 28 67 58 77 68 10 9
22 17 26 17 5 0 21 14 37 30 16 17 32 30 37 30 5 0 32 24 61 53 65 66 154 146
191 172 39 27 175 146 206 180 14 15 35 31 48 36 12 5 22 15 22 24 0 8 5 15
11 15 6 0 25 11 43 25 103 83 168 138 218 186 32 30 69 63 83 74 14 11 37 29
49 40 13 11 43 36 66 55 24 19 72 63 107 96 35 34 82 75 105 90 23 16 57 44
75 62 18 17 36 32 40 32 5 0 34 24 64 53 70 65 170 153 221 192 21 16 38 35
38 42 0 7 6 13 13 13 12 0 176 131 242 194 17 16 71 61 120 101 113 90 173
141 255 219 36 33 91 78 122 100 31 21 68 50 81 65 14 14 55 53 92 86 38 33
76 68 87 77 10 10 22 18 28 18 5 0 14 8 19 18 5 10 22 24 38 32 28 15 62 44
175 153 33 31 63 57 65 57 3 0 16 10 29 23 40 38 64 57 72 57 4 0 34 25 67 56
33 30 121 105 195 167 156 129 343 290 380 328 14 14 48 43 75 64 28 20 81 66
118 101 67 62 69 63 95 50 15 -8 43 -31 62 -51 19 -21 73 -69 120 -108 47 -39
110 -94 140 -123 116 -110 175 -163 182 -164 7 0 49 -36 191 -165 89 -81 129
-114 206 -172 12 -10 79 -72 147 -137 68 -66 136 -127 151 -136 16 -9 44 -33
63 -53 19 -20 38 -37 41 -37 3 0 50 -43 105 -95 54 -52 117 -107 139 -122 21
-16 56 -45 76 -65 20 -21 39 -38 43 -38 3 0 30 -25 59 -56 51 -56 148 -140
203 -179 16 -11 38 -30 50 -42 12 -13 26 -23 33 -23 6 0 11 -4 11 -9 0 -5 15
-23 33 -39 52 -48 141 -125 176 -154 18 -14 58 -50 89 -80 32 -29 73 -66 92
-82 33 -27 78 -66 234 -205 34 -30 105 -95 160 -145 54 -50 104 -94 111 -99 8
-4 31 -24 53 -45 21 -20 65 -59 97 -87 56 -48 128 -113 170 -155 12 -11 24
-20 27 -20 6 0 30 -20 142 -123 31 -29 153 -141 192 -177 12 -11 24 -20 28
-20 3 0 24 -17 45 -37 22 -21 52 -48 68 -60 36 -28 60 -50 103 -99 20 -21 48
-46 64 -54 15 -8 32 -22 37 -32 5 -10 14 -18 19 -18 10 0 132 -112 179 -164
14 -15 53 -49 86 -74 72 -54 70 -52 170 -151 44 -43 123 -114 176 -158 53 -44
110 -94 127 -111 17 -17 63 -59 104 -94 40 -34 75 -65 78 -69 3 -4 28 -24 55
-45 28 -20 66 -54 86 -73 67 -67 262 -246 276 -255 9 -4 34 -26 56 -48 99 -95
152 -138 173 -138 12 0 33 13 47 30 14 17 29 30 34 30 13 0 103 93 103 107 0
7 6 13 13 13 7 0 67 55 132 121 275 278 371 371 393 380 12 5 22 14 22 21 0 7
25 36 56 63 64 58 227 218 295 291 25 27 66 66 90 87 66 58 397 377 433 417
17 19 64 67 105 105 153 145 241 234 241 245 0 5 5 10 10 10 10 0 212 191 274
259 42 46 93 96 296 291 192 185 315 306 377 371 23 24 63 62 89 84 26 22 101
93 166 158 65 64 121 117 125 117 7 0 203 195 203 203 0 6 97 100 174 168 28
24 68 64 90 88 59 62 165 165 181 174 8 4 40 35 72 68 60 63 163 165 386 379
71 69 207 202 302 295 94 94 280 276 413 405 133 129 241 240 241 247 1 6 5
13 10 15 21 8 115 93 252 228 81 80 192 188 246 240 54 52 110 109 124 125 14
17 56 57 94 90 37 33 82 75 99 93 73 77 205 204 248 239 27 21 48 44 48 51 0
6 7 12 15 12 9 0 19 8 22 17 4 9 24 35 46 57 22 23 47 50 56 61 9 11 42 42 74
69 32 26 86 78 120 113 62 65 136 136 188 183 25 22 84 81 209 209 20 20 60
56 90 81 53 45 127 116 186 181 17 19 50 51 73 72 22 21 41 42 41 47 0 4 9 10
21 13 13 3 19 12 17 24 -2 12 2 17 13 15 9 -1 48 31 90 74 41 43 100 102 133
133 32 31 141 137 242 236 100 99 234 230 297 290 261 250 523 504 765 743
141 139 282 277 313 307 30 30 60 55 66 55 7 0 14 9 18 19 3 10 15 21 25 24
11 3 20 12 20 20 0 8 9 17 20 20 11 3 20 12 20 20 0 8 9 17 20 20 11 3 20 12
20 21 0 9 7 16 15 16 9 0 18 7 22 16 3 10 20 30 37 46 70 64 400 384 555 538
329 325 528 513 555 523 9 4 16 13 16 22 0 8 6 15 14 15 7 0 21 10 29 23 8 13
56 64 107 113 181 176 270 267 270 275 0 5 7 9 15 9 9 0 18 6 21 14 3 8 24 27
47 43 23 15 48 34 57 41 24 21 142 96 173 110 55 25 73 31 112 36 22 2 78 12
125 20 48 9 140 16 209 16 133 0 396 -32 446 -55 17 -7 43 -17 60 -21 16 -4
50 -20 75 -35 25 -16 61 -37 80 -47 19 -10 51 -28 72 -40 20 -11 39 -18 42
-15 3 3 18 -6 32 -20 14 -15 41 -32 60 -39 19 -7 34 -15 34 -19 0 -4 17 -14
38 -24 20 -9 55 -27 77 -40 54 -33 222 -114 320 -154 44 -19 91 -39 105 -46
14 -7 43 -16 65 -20 22 -4 46 -12 53 -18 7 -5 36 -15 65 -22 28 -7 72 -20 97
-28 65 -22 214 -57 242 -57 14 0 60 -10 104 -21 72 -19 107 -21 379 -22 254
-1 313 2 385 17 47 10 110 22 140 26 30 4 75 14 100 22 25 8 86 27 135 42 50
15 104 34 120 42 17 8 45 17 62 20 18 4 38 13 44 20 6 8 18 14 26 14 38 0 346
168 383 210 3 3 41 35 85 72 44 37 105 95 135 130 30 34 73 80 95 103 62 62
145 160 145 172 0 5 9 18 20 28 11 10 20 22 20 26 0 4 21 38 46 76 38 56 134
242 134 259 0 3 9 25 20 48 11 24 25 66 31 92 6 27 17 63 25 79 50 113 50 599
0 770 -8 28 -22 78 -30 113 -18 69 -86 213 -162 340 -79 133 -105 171 -163
241 -118 141 -274 280 -435 389 -169 113 -388 222 -446 222 -17 0 -38 4 -48 9
-33 16 -88 34 -137 43 -27 5 -81 17 -120 26 -104 25 -639 25 -740 -1 -38 -9
-96 -22 -127 -28 -32 -6 -60 -15 -63 -20 -4 -5 -19 -9 -35 -9 -16 0 -31 -4
-34 -9 -3 -4 -26 -11 -51 -14 -25 -4 -70 -18 -101 -32 -30 -14 -57 -25 -61
-25 -5 0 -163 -91 -207 -120 -163 -107 -353 -277 -459 -412 -33 -41 -48 -78
-31 -78 3 0 24 15 47 34 38 31 256 146 335 176 17 7 32 16 32 21 0 5 12 9 26
9 15 0 45 8 68 19 42 19 169 51 286 71 36 6 85 15 110 20 204 40 541 44 750
10 276 -44 495 -100 542 -137 7 -5 27 -15 44 -21 17 -5 50 -23 74 -38 24 -16
50 -33 59 -39 9 -5 42 -30 75 -55 32 -25 69 -52 82 -61 31 -20 194 -176 194
-184 0 -4 10 -20 23 -35 12 -15 36 -51 52 -79 17 -28 33 -51 36 -51 4 0 25
-39 48 -87 23 -49 46 -95 50 -103 5 -9 12 -31 16 -50 4 -19 13 -44 20 -55 15
-24 39 -240 39 -345 0 -99 -28 -308 -52 -390 -33 -113 -93 -239 -164 -345 -29
-43 -60 -90 -68 -104 -28 -48 -186 -195 -271 -252 -119 -79 -138 -90 -194
-117 -27 -14 -67 -33 -88 -43 -21 -11 -43 -19 -49 -19 -6 0 -30 -9 -52 -19
-63 -29 -166 -57 -336 -91 -142 -29 -172 -32 -355 -32 -160 0 -227 4 -335 22
-214 35 -409 79 -455 104 -16 9 -38 16 -48 16 -9 0 -34 9 -54 20 -21 11 -43
20 -50 20 -7 0 -30 9 -50 20 -21 11 -42 20 -48 20 -16 0 -138 65 -212 113 -24
15 -46 27 -51 27 -5 0 -17 9 -27 20 -10 11 -24 20 -32 20 -7 0 -22 8 -32 18
-10 9 -35 28 -56 42 -20 14 -42 30 -48 35 -77 64 -255 150 -377 180 -30 8 -64
19 -75 24 -11 5 -49 15 -85 21 -36 7 -87 16 -115 21 -44 9 -1693 3 -2155 -7
-85 -2 -642 -6 -1238 -10 l-1084 -7 5 -56 c2 -31 10 -120 17 -198 19 -212 0
-436 -57 -663 -14 -58 -28 -122 -31 -143 -2 -20 -8 -40 -13 -43 -5 -3 -9 -16
-9 -28 0 -13 -6 -29 -14 -35 -8 -7 -17 -26 -20 -44 -12 -60 -132 -284 -223
-415 -24 -34 -43 -63 -43 -66 0 -4 -7 -14 -15 -23 -9 -10 -37 -44 -62 -77 -25
-32 -67 -77 -92 -100 -71 -65 -131 -127 -131 -137 0 -5 -4 -9 -10 -9 -5 0 -33
-24 -63 -52 -78 -77 -159 -148 -167 -148 -4 0 -15 -10 -23 -22 -21 -30 -107
-119 -187 -192 -61 -56 -276 -262 -452 -434 -43 -41 -78 -79 -78 -83 0 -4 -9
-11 -20 -14 -11 -3 -20 -12 -20 -18 -1 -7 -24 -30 -52 -52 -28 -22 -80 -68
-115 -102 -34 -35 -68 -63 -73 -63 -6 0 -15 -11 -20 -24 -4 -13 -41 -52 -81
-87 -40 -35 -133 -122 -206 -194 -140 -138 -305 -295 -310 -295 -10 0 -43 -37
-43 -47 0 -7 -5 -13 -10 -13 -13 0 -98 -81 -234 -219 -55 -57 -117 -118 -136
-135 -19 -17 -69 -65 -111 -107 -42 -42 -83 -79 -92 -82 -10 -4 -17 -11 -17
-16 0 -5 -30 -38 -67 -73 -37 -35 -120 -115 -183 -178 -64 -63 -149 -144 -190
-180 -84 -75 -209 -195 -539 -520 -129 -126 -235 -230 -237 -230 -1 0 -89 -87
-196 -192 -170 -170 -337 -328 -345 -328 -3 0 -155 -146 -411 -398 -98 -95
-225 -219 -284 -275 -59 -56 -108 -107 -108 -114 0 -6 -4 -13 -9 -15 -30 -10
-407 -368 -855 -811 -82 -81 -151 -147 -154 -147 -11 0 -221 -216 -222 -227 0
-7 -7 -13 -16 -13 -9 0 -18 -9 -21 -20 -3 -11 -11 -20 -19 -20 -7 0 -17 -6
-21 -12 -4 -7 -30 -31 -58 -53 -27 -21 -81 -73 -120 -115 -38 -41 -94 -97
-124 -125 -30 -27 -116 -111 -191 -185 -332 -328 -380 -370 -419 -370 -9 0
-60 42 -113 93 -114 108 -161 147 -177 147 -6 0 -11 7 -11 15 0 9 -7 18 -17
22 -9 4 -44 33 -77 66 -62 62 -167 154 -221 196 -16 12 -66 57 -111 99 -126
120 -173 162 -181 162 -5 0 -31 23 -60 50 -29 28 -54 50 -57 50 -2 0 -35 29
-73 64 -37 35 -99 90 -138 121 -88 72 -192 163 -221 193 -12 12 -26 22 -33 22
-6 0 -11 7 -11 15 0 9 -7 18 -15 21 -8 3 -46 36 -85 72 -38 37 -82 76 -96 87
-14 11 -31 25 -37 30 -31 28 -146 131 -176 158 -19 17 -61 53 -95 80 -33 27
-108 93 -166 148 -110 103 -264 229 -280 229 -6 0 -10 5 -10 11 0 13 -90 96
-190 174 -42 33 -93 77 -112 98 -19 20 -37 37 -39 37 -2 0 -44 38 -93 85 -49
47 -94 85 -100 85 -7 0 -28 16 -47 36 -35 37 -211 192 -289 254 -24 19 -53 45
-65 58 -12 12 -27 22 -34 22 -6 0 -11 6 -11 14 0 8 -4 16 -9 18 -8 3 -70 56
-175 150 -17 15 -38 33 -46 40 -117 98 -220 188 -303 264 -32 30 -65 54 -73
54 -8 0 -14 7 -14 15 0 8 -4 15 -9 15 -9 0 -31 19 -128 111 -34 33 -64 59 -67
59 -2 0 -27 23 -54 50 -27 28 -57 50 -66 50 -9 0 -16 7 -16 15 0 8 -4 15 -8
15 -11 0 -86 66 -178 156 -40 40 -94 87 -120 105 -53 38 -110 88 -194 170 -31
31 -106 97 -166 147 -60 49 -116 98 -125 109 -21 25 -178 166 -196 177 -9 4
-23 16 -32 25 -75 71 -166 153 -210 191 -30 25 -72 62 -95 82 -23 21 -49 40
-58 43 -10 4 -18 13 -18 21 0 8 -8 18 -17 21 -9 4 -43 31 -75 62 -32 30 -69
61 -81 70 -12 8 -43 33 -68 55 -25 23 -60 52 -77 66 -42 33 -72 59 -173 154
-103 97 -178 164 -213 191 -15 11 -66 58 -114 103 -48 46 -130 119 -183 162
-53 43 -132 112 -175 153 -75 71 -107 99 -184 157 -18 14 -52 44 -76 68 -23
23 -46 42 -51 42 -4 0 -13 8 -20 19 -6 10 -58 56 -115 101 -57 46 -158 135
-226 198 -67 64 -135 123 -150 132 -15 9 -33 24 -41 33 -7 10 -20 17 -27 17
-8 0 -14 7 -14 15 0 7 -6 18 -14 22 -12 7 -86 71 -167 145 -14 12 -45 39 -68
58 -23 19 -64 55 -89 78 -26 24 -76 69 -112 100 -35 32 -74 67 -86 80 -12 12
-24 22 -27 22 -3 0 -19 14 -37 30 -18 17 -38 30 -46 30 -8 0 -14 6 -14 13 -1
6 -24 30 -52 52 -27 22 -72 61 -99 88 -26 26 -50 47 -52 47 -3 0 -18 12 -35
28 -16 15 -46 41 -66 57 -41 34 -75 65 -209 188 -53 49 -113 102 -134 118 -21
16 -48 37 -61 47 -12 9 -52 46 -90 81 -37 36 -110 100 -162 143 -102 85 -122
103 -274 245 -54 51 -102 93 -106 93 -4 0 -38 30 -76 68 -109 106 -204 186
-212 178 -4 -4 -8 -1849 -9 -4099 -2 -2251 -4 -4241 -5 -4423 l-3 -331 -30
-26 c-16 -14 -50 -43 -75 -66 -25 -22 -48 -41 -51 -41 -6 0 -23 -14 -94 -79
-101 -91 -182 -159 -197 -164 -10 -4 -18 -13 -18 -22 0 -8 -6 -15 -12 -15 -7
0 -38 -24 -69 -53 -31 -29 -94 -86 -140 -127 -45 -41 -95 -86 -110 -100 -15
-14 -44 -38 -65 -55 -68 -55 -187 -161 -245 -217 -15 -16 -30 -28 -34 -28 -3
0 -36 -25 -72 -57 -102 -86 -133 -114 -187 -165 -27 -27 -53 -48 -58 -48 -4 0
-8 -7 -8 -15 0 -8 -6 -15 -12 -15 -19 -1 -203 -157 -385 -327 -16 -15 -42 -34
-56 -42 -15 -8 -55 -42 -90 -75 -55 -52 -168 -156 -217 -199 -8 -7 -26 -20
-40 -29 -14 -9 -45 -35 -70 -58 -43 -39 -102 -91 -214 -189 -28 -25 -57 -53
-64 -63 -7 -10 -18 -18 -24 -18 -5 0 -31 -20 -57 -44 -25 -24 -73 -65 -106
-92 -55 -44 -85 -70 -153 -131 -14 -13 -28 -23 -31 -23 -3 0 -17 -10 -31 -22
-176 -158 -264 -235 -326 -285 -27 -21 -74 -62 -104 -90 -52 -48 -131 -121
-173 -157 -9 -9 -20 -16 -23 -16 -4 0 -16 -9 -28 -20 -43 -41 -285 -249 -337
-290 -47 -36 -153 -133 -157 -142 -2 -4 -10 -8 -17 -8 -8 0 -19 -9 -25 -20
-15 -28 -56 -26 -65 3 -4 12 -9 1239 -11 2727 -7 4727 -5 19714 2 19748 10 49
34 41 130 -40z"/>
</g>
</svg>
